<svg xmlns="http://www.w3.org/2000/svg" xmlns:xlink="http://www.w3.org/1999/xlink" width="736" zoomAndPan="magnify" viewBox="37 342 736 136" height="136" preserveAspectRatio="xMidYMid meet" version="1.0"><defs><clipPath id="bdaebb9e5d"><path d="M 41.394531 346 L 148 346 L 148 450 L 41.394531 450 Z M 41.394531 346 " clip-rule="nonzero"/></clipPath><clipPath id="21f91a739a"><path d="M 314 369 L 418 369 L 418 473.519531 L 314 473.519531 Z M 314 369 " clip-rule="nonzero"/></clipPath><clipPath id="a733fe1b0b"><path d="M 690 369 L 768.894531 369 L 768.894531 452 L 690 452 Z M 690 369 " clip-rule="nonzero"/></clipPath></defs><g clip-path="url(#bdaebb9e5d)"><path fill="#25a9e0" d="M 68.996094 346.570312 L 147.230469 346.570312 L 141.65625 367.097656 L 86.023438 367.097656 L 80.152344 388.960938 L 129.183594 388.960938 L 123.746094 409.488281 L 74.71875 409.488281 L 63.996094 449.234375 L 41.394531 449.234375 Z M 68.996094 346.570312 " fill-opacity="1" fill-rule="nonzero"/></g><path fill="#25a9e0" d="M 149.28125 444.617188 C 145.078125 440.5625 142.976562 434.960938 142.976562 427.820312 C 142.996094 425.375 143.261719 422.957031 143.777344 420.570312 C 144.316406 417.980469 144.925781 415.402344 145.613281 412.859375 L 156.917969 370.617188 L 179.230469 370.617188 L 167.640625 413.84375 C 167.324219 415.03125 167.078125 416.234375 166.90625 417.453125 C 166.71875 418.589844 166.621094 419.734375 166.609375 420.890625 C 166.519531 422.242188 166.726562 423.550781 167.226562 424.808594 C 167.730469 426.070312 168.480469 427.160156 169.472656 428.085938 C 170.609375 428.984375 171.871094 429.648438 173.253906 430.078125 C 174.640625 430.507812 176.054688 430.675781 177.5 430.582031 C 179.535156 430.652344 181.5 430.308594 183.390625 429.554688 C 185.28125 428.804688 186.941406 427.699219 188.371094 426.25 C 191.4375 422.976562 193.488281 419.15625 194.527344 414.792969 L 206.417969 370.535156 L 228.730469 370.535156 L 207.75 449.152344 L 185.402344 449.152344 L 187.601562 441.019531 C 184.671875 443.605469 181.492188 445.835938 178.0625 447.710938 C 174.351562 449.71875 170.390625 450.6875 166.171875 450.621094 C 159.125 450.671875 153.492188 448.671875 149.28125 444.617188 Z M 149.28125 444.617188 " fill-opacity="1" fill-rule="nonzero"/><path fill="#25a9e0" d="M 248.808594 370.617188 L 271.121094 370.617188 L 268.921875 378.761719 C 271.847656 376.171875 275.027344 373.945312 278.460938 372.070312 C 282.167969 370.058594 286.132812 369.085938 290.351562 369.148438 C 297.398438 369.148438 303.027344 371.183594 307.230469 375.246094 C 311.433594 379.308594 313.539062 384.902344 313.546875 392.03125 C 313.523438 394.480469 313.253906 396.898438 312.734375 399.292969 C 312.191406 401.882812 311.578125 404.449219 310.898438 406.992188 L 299.628906 449.234375 L 277.292969 449.234375 L 288.882812 406.007812 C 289.203125 404.824219 289.445312 403.625 289.617188 402.410156 C 289.796875 401.269531 289.898438 400.125 289.914062 398.972656 C 290.003906 397.617188 289.792969 396.308594 289.292969 395.046875 C 288.789062 393.785156 288.042969 392.691406 287.050781 391.765625 C 285.910156 390.871094 284.648438 390.207031 283.265625 389.777344 C 281.882812 389.347656 280.46875 389.179688 279.023438 389.269531 C 276.988281 389.199219 275.027344 389.542969 273.136719 390.296875 C 271.246094 391.054688 269.589844 392.160156 268.164062 393.609375 C 265.101562 396.863281 263.046875 400.660156 261.996094 405 L 250.105469 449.257812 L 227.816406 449.257812 Z M 248.808594 370.617188 " fill-opacity="1" fill-rule="nonzero"/><g clip-path="url(#21f91a739a)"><path fill="#25a9e0" d="M 333.0625 470.140625 C 326.351562 468.464844 320.089844 465.75 314.28125 461.996094 L 326 446.746094 C 330.195312 449.527344 334.695312 451.652344 339.507812 453.128906 C 344.332031 454.644531 349.273438 455.40625 354.332031 455.421875 C 357.65625 455.488281 360.882812 454.976562 364.023438 453.886719 C 366.8125 452.824219 369.257812 451.234375 371.359375 449.117188 C 373.085938 447.367188 374.480469 445.386719 375.546875 443.171875 C 376.789062 440.550781 377.792969 437.839844 378.550781 435.039062 L 379.285156 432.390625 C 375.804688 435.703125 371.890625 438.375 367.542969 440.410156 C 363.414062 442.09375 359.121094 442.882812 354.664062 442.78125 C 350.925781 442.800781 347.28125 442.214844 343.738281 441.019531 C 340.296875 439.882812 337.191406 438.148438 334.417969 435.816406 C 331.605469 433.4375 329.425781 430.578125 327.878906 427.238281 C 326.179688 423.457031 325.371094 419.5 325.460938 415.355469 C 325.402344 409.011719 326.625 402.921875 329.128906 397.09375 C 331.472656 391.617188 334.699219 386.730469 338.820312 382.429688 C 342.78125 378.296875 347.367188 375.046875 352.578125 372.679688 C 357.601562 370.34375 362.882812 369.167969 368.425781 369.148438 C 371.414062 369.121094 374.351562 369.5 377.230469 370.296875 C 379.613281 370.953125 381.835938 371.957031 383.90625 373.308594 C 385.753906 374.519531 387.371094 375.984375 388.753906 377.707031 C 390.054688 379.347656 391.253906 381.058594 392.34375 382.839844 L 395.578125 370.664062 L 417.890625 370.664062 L 401.011719 433.882812 C 399.933594 437.890625 398.90625 441.328125 397.929688 444.191406 C 397.066406 446.753906 396.039062 449.25 394.84375 451.671875 C 393.863281 453.683594 392.714844 455.589844 391.402344 457.402344 C 390.128906 459.121094 388.734375 460.738281 387.21875 462.25 C 383.503906 465.945312 379.175781 468.65625 374.226562 470.382812 C 368.238281 472.3125 362.101562 473.183594 355.8125 472.996094 C 348.105469 473.027344 340.523438 472.074219 333.0625 470.140625 Z M 372.265625 423.167969 C 375.039062 421.988281 377.507812 420.347656 379.671875 418.253906 C 381.824219 416.152344 383.511719 413.734375 384.742188 410.992188 C 386.027344 408.175781 386.660156 405.21875 386.644531 402.121094 C 386.644531 397.625 385.226562 394.101562 382.390625 391.558594 C 379.554688 389.015625 375.785156 387.746094 371.085938 387.746094 C 368.007812 387.726562 365.070312 388.363281 362.28125 389.65625 C 359.554688 390.910156 357.160156 392.621094 355.089844 394.789062 C 353 396.980469 351.382812 399.472656 350.238281 402.273438 C 349.066406 405.085938 348.480469 408.019531 348.484375 411.070312 C 348.484375 415.769531 349.875 419.261719 352.660156 421.554688 C 354.195312 422.75 355.890625 423.640625 357.746094 424.234375 C 359.601562 424.824219 361.503906 425.078125 363.449219 424.992188 C 366.511719 425.007812 369.453125 424.410156 372.265625 423.203125 Z M 372.265625 423.167969 " fill-opacity="1" fill-rule="nonzero"/></g><path fill="#25a9e0" d="M 432.222656 449.164062 C 431.222656 448.808594 430.253906 448.378906 429.316406 447.875 C 428.382812 447.367188 427.492188 446.792969 426.648438 446.148438 C 425.804688 445.503906 425.015625 444.796875 424.28125 444.027344 C 423.546875 443.257812 422.875 442.4375 422.269531 441.566406 C 421.664062 440.691406 421.132812 439.777344 420.667969 438.820312 C 420.207031 437.863281 419.820312 436.878906 419.515625 435.859375 C 419.207031 434.84375 418.980469 433.808594 418.835938 432.757812 C 418.691406 431.703125 418.628906 430.648438 418.648438 429.585938 C 418.601562 427.574219 418.785156 425.585938 419.199219 423.621094 C 419.613281 421.65625 420.246094 419.761719 421.101562 417.941406 C 421.953125 416.121094 423.003906 414.421875 424.25 412.847656 C 425.5 411.269531 426.910156 409.855469 428.484375 408.609375 C 431.691406 406.066406 435.261719 404.234375 439.195312 403.109375 C 443.558594 401.847656 448.011719 401.234375 452.554688 401.273438 C 456.519531 401.25 460.460938 401.566406 464.375 402.226562 C 467.871094 402.855469 471.3125 403.710938 474.695312 404.792969 L 474.992188 403.773438 C 475.191406 402.886719 475.386719 401.980469 475.578125 401.058594 C 475.785156 400.019531 475.882812 398.96875 475.875 397.90625 C 475.90625 396.597656 475.636719 395.355469 475.066406 394.175781 C 474.496094 393 473.6875 392.015625 472.640625 391.226562 C 470.488281 389.515625 466.621094 388.660156 461.050781 388.660156 C 457.257812 388.65625 453.511719 389.070312 449.8125 389.910156 C 446.476562 390.640625 443.222656 391.640625 440.054688 392.910156 L 436.558594 375.324219 C 440.941406 373.582031 445.445312 372.238281 450.066406 371.292969 C 455.242188 370.234375 460.476562 369.722656 465.761719 369.757812 C 476.464844 369.757812 484.441406 371.859375 489.691406 376.058594 C 494.945312 380.257812 497.585938 386.226562 497.617188 393.953125 C 497.617188 395.972656 497.449219 397.976562 497.109375 399.96875 C 496.765625 401.929688 496.34375 403.875 495.859375 405.835938 L 484.234375 449.234375 L 462.6875 449.234375 L 464.984375 440.148438 C 461.992188 443.472656 458.472656 446.089844 454.421875 447.996094 C 450.3125 449.847656 446.007812 450.75 441.5 450.699219 C 438.316406 450.742188 435.222656 450.230469 432.222656 449.164062 Z M 457.769531 434.203125 C 459.886719 433.371094 461.816406 432.226562 463.5625 430.765625 C 465.335938 429.304688 466.863281 427.621094 468.148438 425.710938 C 469.410156 423.832031 470.335938 421.800781 470.933594 419.617188 L 471.53125 417.566406 C 469.335938 416.714844 467.082031 416.054688 464.777344 415.585938 C 462.160156 415.039062 459.515625 414.773438 456.839844 414.78125 C 454.78125 414.6875 452.761719 414.917969 450.777344 415.480469 C 448.792969 416.042969 446.949219 416.90625 445.25 418.070312 C 444.53125 418.578125 443.886719 419.164062 443.316406 419.832031 C 442.746094 420.5 442.265625 421.226562 441.875 422.015625 C 441.484375 422.800781 441.195312 423.625 441.011719 424.484375 C 440.824219 425.339844 440.746094 426.210938 440.777344 427.085938 C 440.75 428.25 440.980469 429.363281 441.46875 430.417969 C 441.957031 431.476562 442.65625 432.371094 443.5625 433.101562 C 444.628906 433.929688 445.808594 434.546875 447.09375 434.953125 C 448.382812 435.355469 449.703125 435.523438 451.050781 435.449219 C 453.371094 435.46875 455.613281 435.050781 457.769531 434.203125 Z M 457.769531 434.203125 " fill-opacity="1" fill-rule="nonzero"/><path fill="#45ac4d" d="M 549.292969 367.398438 L 518.027344 367.398438 L 523.597656 346.570312 L 608.746094 346.570312 L 603.164062 367.398438 L 571.894531 367.398438 L 549.878906 449.234375 L 527.265625 449.234375 Z M 549.292969 367.398438 " fill-opacity="1" fill-rule="nonzero"/><path fill="#45ac4d" d="M 626.792969 428.921875 C 629.636719 431.707031 633.996094 433.101562 639.867188 433.101562 C 642.785156 433.105469 645.625 432.617188 648.375 431.636719 C 651.574219 430.417969 654.558594 428.808594 657.328125 426.800781 L 667.648438 440.550781 C 663.804688 443.679688 659.574219 446.152344 654.957031 447.960938 C 649.300781 450.097656 643.453125 451.097656 637.414062 450.964844 C 632.183594 451.046875 627.097656 450.238281 622.152344 448.546875 C 617.835938 447.074219 614.015625 444.78125 610.683594 441.671875 C 607.460938 438.574219 605.0625 434.929688 603.496094 430.742188 C 601.742188 426.011719 600.90625 421.121094 600.996094 416.078125 C 601.023438 410.21875 602.121094 404.570312 604.296875 399.132812 C 605.402344 396.304688 606.765625 393.609375 608.382812 391.042969 C 610.003906 388.472656 611.847656 386.082031 613.921875 383.867188 C 615.996094 381.652344 618.261719 379.648438 620.71875 377.863281 C 623.175781 376.078125 625.777344 374.542969 628.527344 373.25 C 634.59375 370.417969 640.976562 369.046875 647.675781 369.140625 C 652.371094 369.046875 656.921875 369.8125 661.332031 371.429688 C 665.15625 372.871094 668.53125 375.023438 671.457031 377.878906 C 674.230469 380.664062 676.308594 383.894531 677.691406 387.574219 C 679.160156 391.496094 679.871094 395.550781 679.824219 399.738281 C 679.8125 402.710938 679.46875 405.644531 678.792969 408.539062 C 678.082031 411.65625 677.101562 414.6875 675.859375 417.636719 L 621.96875 417.636719 C 622.046875 419.75 622.5 421.78125 623.332031 423.726562 C 624.164062 425.671875 625.320312 427.402344 626.792969 428.921875 Z M 658.0625 403.773438 C 658.558594 402.097656 658.800781 400.386719 658.796875 398.640625 C 658.835938 397.128906 658.597656 395.664062 658.078125 394.246094 C 657.558594 392.828125 656.796875 391.554688 655.792969 390.425781 C 653.789062 388.132812 650.488281 387.007812 645.886719 387.046875 C 643.449219 387.003906 641.074219 387.378906 638.765625 388.164062 C 636.457031 388.953125 634.351562 390.105469 632.449219 391.628906 C 630.484375 393.207031 628.769531 395.027344 627.3125 397.082031 C 625.851562 399.136719 624.703125 401.351562 623.859375 403.726562 Z M 658.0625 403.773438 " fill-opacity="1" fill-rule="nonzero"/><g clip-path="url(#a733fe1b0b)"><path fill="#45ac4d" d="M 712.082031 448.429688 C 707.730469 446.820312 703.867188 444.425781 700.488281 441.246094 C 697.171875 438.070312 694.65625 434.355469 692.933594 430.101562 C 691.046875 425.417969 690.140625 420.550781 690.214844 415.503906 C 690.171875 409.199219 691.417969 403.164062 693.953125 397.390625 C 696.371094 391.863281 699.722656 386.976562 704.007812 382.726562 C 708.304688 378.5 713.222656 375.195312 718.765625 372.816406 C 724.453125 370.347656 730.394531 369.125 736.59375 369.148438 C 740.523438 369.105469 744.390625 369.566406 748.199219 370.535156 C 751.378906 371.363281 754.386719 372.597656 757.222656 374.25 C 759.742188 375.742188 761.992188 377.5625 763.976562 379.714844 C 765.84375 381.746094 767.484375 383.949219 768.894531 386.324219 L 751.867188 398.34375 C 750.070312 395.484375 747.839844 393.015625 745.183594 390.929688 C 742.683594 389.027344 739.246094 388.078125 734.863281 388.078125 C 731.835938 388.085938 728.996094 388.820312 726.34375 390.277344 C 723.550781 391.789062 721.152344 393.777344 719.15625 396.246094 C 717.007812 398.886719 715.339844 401.804688 714.15625 405 C 712.875 408.363281 712.238281 411.847656 712.253906 415.449219 C 712.253906 420.550781 713.71875 424.597656 716.65625 427.589844 C 718.09375 429.078125 719.773438 430.210938 721.6875 430.992188 C 723.601562 431.773438 725.59375 432.136719 727.664062 432.082031 C 730.898438 432.132812 733.984375 431.472656 736.917969 430.101562 C 740.007812 428.539062 742.84375 426.609375 745.425781 424.304688 L 756.890625 438.820312 C 752.96875 442.417969 748.613281 445.378906 743.820312 447.699219 C 738.441406 450.074219 732.816406 451.171875 726.941406 450.996094 C 721.828125 451.058594 716.875 450.203125 712.082031 448.429688 Z M 712.082031 448.429688 " fill-opacity="1" fill-rule="nonzero"/></g></svg>