<svg xmlns="http://www.w3.org/2000/svg" xmlns:xlink="http://www.w3.org/1999/xlink" width="1920" zoomAndPan="magnify" viewBox="0 0 1440 809.999993" height="1080" preserveAspectRatio="xMidYMid meet" version="1.0"><defs><g/><clipPath id="58092a2ed8"><rect x="0" width="742" y="0" height="293"/></clipPath><clipPath id="9759b57a67"><rect x="0" width="601" y="0" height="293"/></clipPath></defs><g transform="matrix(1, 0, 0, 1, 56, 255)"><g clip-path="url(#58092a2ed8)"><g fill="#0c2c51" fill-opacity="1"><g transform="translate(3.254496, 229.691437)"><g><path d="M 70.203125 -125.078125 L 70.203125 -96.328125 L 140.171875 -96.328125 L 140.171875 -53.671875 L 70.203125 -53.671875 L 70.203125 0 L 13.65625 0 L 13.65625 -167.734375 L 150 -167.734375 L 150 -125.078125 Z M 70.203125 -125.078125 "/></g></g></g><g fill="#0c2c51" fill-opacity="1"><g transform="translate(155.158643, 229.691437)"><g><path d="M 155.265625 -131.0625 L 155.265625 0 L 103.75 0 L 103.75 -12.453125 C 98.957031 -7.503906 93.363281 -3.789062 86.96875 -1.3125 C 80.582031 1.15625 73.796875 2.390625 66.609375 2.390625 C 49.992188 2.390625 36.65625 -2.675781 26.59375 -12.8125 C 16.53125 -22.957031 11.5 -38.253906 11.5 -58.703125 L 11.5 -131.0625 L 65.65625 -131.0625 L 65.65625 -68.046875 C 65.65625 -59.097656 67.09375 -52.707031 69.96875 -48.875 C 72.84375 -45.039062 77.078125 -43.125 82.671875 -43.125 C 87.941406 -43.125 92.332031 -45.238281 95.84375 -49.46875 C 99.351562 -53.707031 101.109375 -60.378906 101.109375 -69.484375 L 101.109375 -131.0625 Z M 155.265625 -131.0625 "/></g></g></g><g fill="#0c2c51" fill-opacity="1"><g transform="translate(322.397036, 229.691437)"><g><path d="M 103.03125 -133.46875 C 119.164062 -133.46875 132.144531 -128.59375 141.96875 -118.84375 C 151.789062 -109.101562 156.703125 -94.410156 156.703125 -74.765625 L 156.703125 0 L 102.546875 0 L 102.546875 -65.40625 C 102.546875 -80.425781 97.195312 -87.9375 86.5 -87.9375 C 80.425781 -87.9375 75.507812 -85.816406 71.75 -81.578125 C 68 -77.347656 66.125 -70.679688 66.125 -61.578125 L 66.125 0 L 11.984375 0 L 11.984375 -131.0625 L 63.5 -131.0625 L 63.5 -118.125 C 68.601562 -123.238281 74.507812 -127.070312 81.21875 -129.625 C 87.9375 -132.1875 95.207031 -133.46875 103.03125 -133.46875 Z M 103.03125 -133.46875 "/></g></g></g><g fill="#0c2c51" fill-opacity="1"><g transform="translate(492.9898, 229.691437)"><g><path d="M 158.375 -131.0625 L 158.375 -26.125 C 158.375 -1.195312 151.460938 17.53125 137.640625 30.0625 C 123.828125 42.601562 104.144531 48.875 78.59375 48.875 C 65.488281 48.875 53.265625 47.476562 41.921875 44.6875 C 30.585938 41.894531 20.925781 37.863281 12.9375 32.59375 L 31.15625 -4.3125 C 36.257812 -0.476562 42.722656 2.632812 50.546875 5.03125 C 58.378906 7.425781 65.890625 8.625 73.078125 8.625 C 83.941406 8.625 91.847656 6.304688 96.796875 1.671875 C 101.753906 -2.953125 104.234375 -9.738281 104.234375 -18.6875 L 104.234375 -21.078125 C 96.085938 -11.816406 84.023438 -7.1875 68.046875 -7.1875 C 56.867188 -7.1875 46.445312 -9.78125 36.78125 -14.96875 C 27.113281 -20.164062 19.40625 -27.59375 13.65625 -37.25 C 7.90625 -46.914062 5.03125 -57.976562 5.03125 -70.4375 C 5.03125 -82.90625 7.90625 -93.929688 13.65625 -103.515625 C 19.40625 -113.097656 27.113281 -120.484375 36.78125 -125.671875 C 46.445312 -130.867188 56.867188 -133.46875 68.046875 -133.46875 C 85.941406 -133.46875 98.878906 -127.710938 106.859375 -116.203125 L 106.859375 -131.0625 Z M 82.421875 -49.359375 C 88.816406 -49.359375 94.128906 -51.3125 98.359375 -55.21875 C 102.585938 -59.132812 104.703125 -64.207031 104.703125 -70.4375 C 104.703125 -76.675781 102.585938 -81.710938 98.359375 -85.546875 C 94.128906 -89.378906 88.816406 -91.296875 82.421875 -91.296875 C 75.878906 -91.296875 70.488281 -89.378906 66.25 -85.546875 C 62.019531 -81.710938 59.90625 -76.675781 59.90625 -70.4375 C 59.90625 -64.207031 62.0625 -59.132812 66.375 -55.21875 C 70.6875 -51.3125 76.035156 -49.359375 82.421875 -49.359375 Z M 82.421875 -49.359375 "/></g></g></g><g fill="#0c2c51" fill-opacity="1"><g transform="translate(663.342892, 229.691437)"><g><path d="M 11.984375 -131.0625 L 66.125 -131.0625 L 66.125 0 L 11.984375 0 Z M 39.046875 -141.609375 C 29.304688 -141.609375 21.441406 -144.203125 15.453125 -149.390625 C 9.460938 -154.585938 6.46875 -161.179688 6.46875 -169.171875 C 6.46875 -177.148438 9.460938 -183.734375 15.453125 -188.921875 C 21.441406 -194.117188 29.304688 -196.71875 39.046875 -196.71875 C 48.953125 -196.71875 56.859375 -194.238281 62.765625 -189.28125 C 68.679688 -184.332031 71.640625 -177.945312 71.640625 -170.125 C 71.640625 -161.8125 68.679688 -154.976562 62.765625 -149.625 C 56.859375 -144.28125 48.953125 -141.609375 39.046875 -141.609375 Z M 39.046875 -141.609375 "/></g></g></g></g></g><g transform="matrix(1, 0, 0, 1, 784, 258)"><g clip-path="url(#9759b57a67)"><g fill="#0c2c51" fill-opacity="1"><g transform="translate(0.0948496, 230.333151)"><g><path d="M 27.3125 -167.734375 L 95.609375 -167.734375 C 113.335938 -167.734375 128.988281 -164.175781 142.5625 -157.0625 C 156.144531 -149.957031 166.6875 -140.050781 174.1875 -127.34375 C 181.695312 -114.644531 185.453125 -100.148438 185.453125 -83.859375 C 185.453125 -67.566406 181.695312 -53.070312 174.1875 -40.375 C 166.6875 -27.675781 156.144531 -17.769531 142.5625 -10.65625 C 128.988281 -3.550781 113.335938 0 95.609375 0 L 27.3125 0 Z M 94.640625 -15.328125 C 109.335938 -15.328125 122.195312 -18.242188 133.21875 -24.078125 C 144.238281 -29.910156 152.785156 -37.976562 158.859375 -48.28125 C 164.929688 -58.582031 167.96875 -70.441406 167.96875 -83.859375 C 167.96875 -97.273438 164.929688 -109.132812 158.859375 -119.4375 C 152.785156 -129.75 144.238281 -137.816406 133.21875 -143.640625 C 122.195312 -149.472656 109.335938 -152.390625 94.640625 -152.390625 L 45.046875 -152.390625 L 45.046875 -15.328125 Z M 94.640625 -15.328125 "/></g></g></g><g fill="#0c2c51" fill-opacity="1"><g transform="translate(198.009553, 230.333151)"><g><path d="M 75.234375 1.203125 C 63.097656 1.203125 52.15625 -1.550781 42.40625 -7.0625 C 32.664062 -12.570312 25 -20.195312 19.40625 -29.9375 C 13.8125 -39.6875 11.015625 -50.710938 11.015625 -63.015625 C 11.015625 -75.316406 13.8125 -86.335938 19.40625 -96.078125 C 25 -105.828125 32.664062 -113.414062 42.40625 -118.84375 C 52.15625 -124.28125 63.097656 -127 75.234375 -127 C 87.378906 -127 98.320312 -124.28125 108.0625 -118.84375 C 117.8125 -113.414062 125.441406 -105.828125 130.953125 -96.078125 C 136.460938 -86.335938 139.21875 -75.316406 139.21875 -63.015625 C 139.21875 -50.710938 136.460938 -39.6875 130.953125 -29.9375 C 125.441406 -20.195312 117.8125 -12.570312 108.0625 -7.0625 C 98.320312 -1.550781 87.378906 1.203125 75.234375 1.203125 Z M 75.234375 -13.890625 C 84.179688 -13.890625 92.207031 -15.925781 99.3125 -20 C 106.425781 -24.082031 111.976562 -29.875 115.96875 -37.375 C 119.96875 -44.882812 121.96875 -53.429688 121.96875 -63.015625 C 121.96875 -72.597656 119.96875 -81.144531 115.96875 -88.65625 C 111.976562 -96.164062 106.425781 -101.957031 99.3125 -106.03125 C 92.207031 -110.101562 84.179688 -112.140625 75.234375 -112.140625 C 66.285156 -112.140625 58.257812 -110.101562 51.15625 -106.03125 C 44.050781 -101.957031 38.460938 -96.164062 34.390625 -88.65625 C 30.316406 -81.144531 28.28125 -72.597656 28.28125 -63.015625 C 28.28125 -53.429688 30.316406 -44.882812 34.390625 -37.375 C 38.460938 -29.875 44.050781 -24.082031 51.15625 -20 C 58.257812 -15.925781 66.285156 -13.890625 75.234375 -13.890625 Z M 75.234375 -13.890625 "/></g></g></g><g fill="#0c2c51" fill-opacity="1"><g transform="translate(348.242643, 230.333151)"><g><path d="M 75.953125 1.203125 C 63.492188 1.203125 52.351562 -1.507812 42.53125 -6.9375 C 32.707031 -12.375 25 -20.003906 19.40625 -29.828125 C 13.8125 -39.648438 11.015625 -50.710938 11.015625 -63.015625 C 11.015625 -75.316406 13.8125 -86.335938 19.40625 -96.078125 C 25 -105.828125 32.707031 -113.414062 42.53125 -118.84375 C 52.351562 -124.28125 63.492188 -127 75.953125 -127 C 86.816406 -127 96.519531 -124.878906 105.0625 -120.640625 C 113.613281 -116.410156 120.363281 -110.222656 125.3125 -102.078125 L 112.609375 -93.453125 C 108.460938 -99.679688 103.191406 -104.351562 96.796875 -107.46875 C 90.410156 -110.582031 83.460938 -112.140625 75.953125 -112.140625 C 66.847656 -112.140625 58.660156 -110.101562 51.390625 -106.03125 C 44.128906 -101.957031 38.460938 -96.164062 34.390625 -88.65625 C 30.316406 -81.144531 28.28125 -72.597656 28.28125 -63.015625 C 28.28125 -53.273438 30.316406 -44.691406 34.390625 -37.265625 C 38.460938 -29.835938 44.128906 -24.082031 51.390625 -20 C 58.660156 -15.925781 66.847656 -13.890625 75.953125 -13.890625 C 83.460938 -13.890625 90.410156 -15.40625 96.796875 -18.4375 C 103.191406 -21.476562 108.460938 -26.113281 112.609375 -32.34375 L 125.3125 -23.71875 C 120.363281 -15.570312 113.578125 -9.378906 104.953125 -5.140625 C 96.328125 -0.910156 86.660156 1.203125 75.953125 1.203125 Z M 75.953125 1.203125 "/></g></g></g><g fill="#0c2c51" fill-opacity="1"><g transform="translate(483.140913, 230.333151)"><g><path d="M 57.5 1.203125 C 47.28125 1.203125 37.5 -0.273438 28.15625 -3.234375 C 18.8125 -6.191406 11.503906 -9.90625 6.234375 -14.375 L 13.890625 -27.796875 C 19.160156 -23.640625 25.789062 -20.242188 33.78125 -17.609375 C 41.769531 -14.972656 50.078125 -13.65625 58.703125 -13.65625 C 70.203125 -13.65625 78.707031 -15.453125 84.21875 -19.046875 C 89.726562 -22.640625 92.484375 -27.710938 92.484375 -34.265625 C 92.484375 -38.898438 90.96875 -42.535156 87.9375 -45.171875 C 84.90625 -47.804688 81.070312 -49.800781 76.4375 -51.15625 C 71.800781 -52.507812 65.648438 -53.828125 57.984375 -55.109375 C 47.765625 -57.023438 39.539062 -58.976562 33.3125 -60.96875 C 27.082031 -62.96875 21.769531 -66.363281 17.375 -71.15625 C 12.976562 -75.957031 10.78125 -82.585938 10.78125 -91.046875 C 10.78125 -101.585938 15.171875 -110.210938 23.953125 -116.921875 C 32.742188 -123.640625 44.96875 -127 60.625 -127 C 68.769531 -127 76.914062 -125.921875 85.0625 -123.765625 C 93.207031 -121.609375 99.914062 -118.769531 105.1875 -115.25 L 97.765625 -101.59375 C 87.378906 -108.78125 75 -112.375 60.625 -112.375 C 49.757812 -112.375 41.570312 -110.457031 36.0625 -106.625 C 30.550781 -102.789062 27.796875 -97.757812 27.796875 -91.53125 C 27.796875 -86.738281 29.351562 -82.90625 32.46875 -80.03125 C 35.582031 -77.15625 39.453125 -75.035156 44.078125 -73.671875 C 48.710938 -72.316406 55.101562 -70.921875 63.25 -69.484375 C 73.320312 -67.566406 81.390625 -65.648438 87.453125 -63.734375 C 93.523438 -61.816406 98.71875 -58.539062 103.03125 -53.90625 C 107.34375 -49.28125 109.5 -42.894531 109.5 -34.75 C 109.5 -23.71875 104.90625 -14.96875 95.71875 -8.5 C 86.539062 -2.03125 73.800781 1.203125 57.5 1.203125 Z M 57.5 1.203125 "/></g></g></g></g></g></svg>